<svg width="2374" height="562" viewBox="0 0 2374 562" fill="none" xmlns="http://www.w3.org/2000/svg">
<path fill-rule="evenodd" clip-rule="evenodd" d="M575.148 398.941V211.441H893.648V398.941H947.148C947.148 398.941 946.648 141.941 946.648 99.4413C946.648 56.9416 881.948 2.24172 841.148 1.44172C800.348 0.641721 690.315 1.10839 632.148 1.44172C587.148 1.6996 525.148 50.8131 525.148 99.4412C525.148 133.321 525.111 166.976 525.074 200.5C525 266.915 524.926 332.818 525.148 398.941H575.148ZM577 165.221H895.5V112.221C895.5 85.221 857.3 49.621 834.5 49.221C811.701 48.821 700.834 49.0543 643.001 49.221C618.001 49.221 577 81.0207 577 112.221V165.221Z" fill="#1E1E1E"/>
<path d="M575.148 211.441V210.941H574.648V211.441H575.148ZM575.148 398.941V399.441H575.648V398.941H575.148ZM893.648 211.441H894.148V210.941H893.648V211.441ZM893.648 398.941H893.148V399.441H893.648V398.941ZM947.148 398.941V399.441H947.649L947.648 398.94L947.148 398.941ZM632.148 1.44172L632.146 0.94173L632.148 1.44172ZM525.148 99.4412L525.648 99.4412L525.148 99.4412ZM525.074 200.5L525.574 200.501L525.074 200.5ZM525.148 398.941L524.648 398.943L524.65 399.441H525.148V398.941ZM895.5 165.221V165.721H896V165.221H895.5ZM577 165.221H576.5V165.721H577V165.221ZM834.5 49.221L834.509 48.721L834.5 49.221ZM643.001 49.221V49.721L643.002 49.721L643.001 49.221ZM574.648 211.441V398.941H575.648V211.441H574.648ZM893.648 210.941H575.148V211.941H893.648V210.941ZM894.148 398.941V211.441H893.148V398.941H894.148ZM947.148 398.441H893.648V399.441H947.148V398.441ZM946.148 99.4413C946.148 120.692 946.273 195.567 946.398 265.13C946.461 299.911 946.523 333.364 946.57 358.122C946.593 370.501 946.613 380.706 946.626 387.816C946.633 391.371 946.639 394.153 946.642 396.046C946.644 396.992 946.646 397.716 946.647 398.204C946.647 398.448 946.647 398.632 946.648 398.756C946.648 398.818 946.648 398.864 946.648 398.895C946.648 398.911 946.648 398.923 946.648 398.931C946.648 398.934 946.648 398.937 946.648 398.939C946.648 398.941 946.648 398.942 947.148 398.941C947.648 398.94 947.648 398.939 947.648 398.937C947.648 398.935 947.648 398.933 947.648 398.929C947.648 398.921 947.648 398.909 947.648 398.894C947.648 398.862 947.648 398.816 947.648 398.754C947.647 398.63 947.647 398.446 947.647 398.202C947.646 397.714 947.644 396.99 947.642 396.044C947.639 394.151 947.633 391.37 947.626 387.814C947.613 380.704 947.593 370.499 947.57 358.12C947.523 333.362 947.461 299.909 947.398 265.128C947.273 195.565 947.148 120.691 947.148 99.4413H946.148ZM841.139 1.94163C861.363 2.33819 887.626 16.122 908.865 35.1763C919.473 44.6936 928.801 55.5032 935.473 66.57C942.149 77.6411 946.148 88.9385 946.148 99.4413H947.148C947.148 88.6942 943.061 77.2168 936.33 66.0536C929.596 54.8862 920.199 44.002 909.532 34.4319C888.22 15.3114 861.733 1.34525 841.158 0.941817L841.139 1.94163ZM632.151 1.94171C690.321 1.60836 800.347 1.14178 841.139 1.94163L841.158 0.941817C800.35 0.141661 690.309 0.608415 632.146 0.94173L632.151 1.94171ZM525.648 99.4412C525.648 75.3313 541.031 51.0216 562.101 32.6798C583.17 14.3403 609.809 2.06975 632.151 1.94171L632.146 0.94173C609.488 1.07157 582.627 13.4867 561.445 31.9255C540.265 50.362 524.648 74.9231 524.648 99.4412L525.648 99.4412ZM525.574 200.501C525.611 166.976 525.648 133.321 525.648 99.4412L524.648 99.4412C524.648 133.321 524.611 166.975 524.574 200.499L525.574 200.501ZM525.648 398.94C525.426 332.818 525.5 266.916 525.574 200.501L524.574 200.499C524.5 266.915 524.426 332.818 524.648 398.943L525.648 398.94ZM575.148 398.441H525.148V399.441H575.148V398.441ZM895.5 164.721H577V165.721H895.5V164.721ZM895 112.221V165.221H896V112.221H895ZM834.492 49.7209C840.076 49.8188 846.654 52.0774 853.405 55.8724C860.149 59.6631 867.025 64.9656 873.198 71.1006C885.567 83.3948 895 98.9227 895 112.221H896C896 98.5192 886.334 82.7471 873.903 70.3913C867.675 64.2014 860.727 58.8413 853.895 55.0007C847.071 51.1646 840.325 48.8231 834.509 48.721L834.492 49.7209ZM643.002 49.721C700.839 49.5543 811.698 49.321 834.492 49.7209L834.509 48.721C811.703 48.3209 700.828 48.5543 642.999 48.721L643.002 49.721ZM577.5 112.221C577.5 96.8281 587.629 81.2032 600.957 69.3951C614.286 57.5856 630.672 49.721 643.001 49.721V48.721C630.329 48.721 613.714 56.7562 600.294 68.6466C586.871 80.5385 576.5 96.4136 576.5 112.221H577.5ZM577.5 165.221V112.221H576.5V165.221H577.5Z" fill="black"/>
<path d="M1307.5 166H1159.5V211.5H1307.5C1307.5 211.5 1369 211.5 1369 270V355H1141.5C1094.7 353.8 1055.5 335.1 1055.5 298V117.5C1055.5 108 1059.5 42.5 1135.5 42.5H1421.5V2H1101C1051 2 1002 43.5 1002 98V298C1002 360 1068 390.833 1101 398.5H1421.5V270C1421.5 221.5 1384.5 168.5 1307.5 166Z" fill="#1E1E1E"/>
<path d="M1896 399.5H1477V96C1477.4 38.8 1545 1.99967 1578 2C1611 2.00033 1896 2 1896 2V44H1603.5C1559.5 44 1528.5 76.5 1528.5 96V167.5H1896V214H1528.5V358.5H1896V399.5Z" fill="#1E1E1E"/>
<mask id="path-5-inside-1_553_1419" fill="white">
<path fill-rule="evenodd" clip-rule="evenodd" d="M2074 0C2006.07 0 1951 55.069 1951 123V276C1951 343.931 2006.07 399 2074 399H2250C2317.93 399 2373 343.931 2373 276V123C2373 55.069 2317.93 0 2250 0H2074ZM2082 45C2038.37 45 2003 80.3695 2003 124V274C2003 317.63 2038.37 353 2082 353H2243C2286.63 353 2322 317.63 2322 274V124C2322 80.3695 2286.63 45 2243 45H2082Z"/>
</mask>
<path fill-rule="evenodd" clip-rule="evenodd" d="M2074 0C2006.07 0 1951 55.069 1951 123V276C1951 343.931 2006.07 399 2074 399H2250C2317.93 399 2373 343.931 2373 276V123C2373 55.069 2317.93 0 2250 0H2074ZM2082 45C2038.37 45 2003 80.3695 2003 124V274C2003 317.63 2038.37 353 2082 353H2243C2286.63 353 2322 317.63 2322 274V124C2322 80.3695 2286.63 45 2243 45H2082Z" fill="#1E1E1E"/>
<path d="M1952 123C1952 55.6213 2006.62 1 2074 1V-1C2005.52 -1 1950 54.5167 1950 123H1952ZM1952 276V123H1950V276H1952ZM2074 398C2006.62 398 1952 343.379 1952 276H1950C1950 344.483 2005.52 400 2074 400V398ZM2250 398H2074V400H2250V398ZM2372 276C2372 343.379 2317.38 398 2250 398V400C2318.48 400 2374 344.483 2374 276H2372ZM2372 123V276H2374V123H2372ZM2250 1C2317.38 1 2372 55.6213 2372 123H2374C2374 54.5167 2318.48 -1 2250 -1V1ZM2074 1H2250V-1H2074V1ZM2004 124C2004 80.9218 2038.92 46 2082 46V44C2037.82 44 2002 79.8172 2002 124H2004ZM2004 274V124H2002V274H2004ZM2082 352C2038.92 352 2004 317.078 2004 274H2002C2002 318.183 2037.82 354 2082 354V352ZM2243 352H2082V354H2243V352ZM2321 274C2321 317.078 2286.08 352 2243 352V354C2287.18 354 2323 318.183 2323 274H2321ZM2321 124V274H2323V124H2321ZM2243 46C2286.08 46 2321 80.9218 2321 124H2323C2323 79.8172 2287.18 44 2243 44V46ZM2082 46H2243V44H2082V46Z" fill="black" mask="url(#path-5-inside-1_553_1419)"/>
<path d="M65.5824 456.364C65.0071 451.506 62.674 447.734 58.5831 445.05C54.4922 442.365 49.4744 441.023 43.5298 441.023C39.1832 441.023 35.38 441.726 32.12 443.132C28.892 444.538 26.3672 446.472 24.5455 448.933C22.7557 451.394 21.8608 454.19 21.8608 457.322C21.8608 459.943 22.484 462.196 23.7305 464.082C25.0089 465.936 26.6388 467.486 28.6204 468.732C30.6019 469.947 32.6793 470.953 34.8526 471.752C37.0259 472.52 39.0234 473.143 40.8452 473.622L50.8168 476.307C53.3736 476.978 56.218 477.905 59.3501 479.087C62.5142 480.27 65.5344 481.884 68.4109 483.929C71.3192 485.943 73.7163 488.532 75.6019 491.696C77.4876 494.86 78.4304 498.743 78.4304 503.345C78.4304 508.651 77.0401 513.445 74.2596 517.727C71.511 522.01 67.484 525.414 62.1786 527.939C56.9052 530.463 50.4972 531.726 42.9545 531.726C35.9233 531.726 29.8349 530.591 24.6893 528.322C19.5756 526.053 15.5487 522.889 12.6083 518.83C9.69993 514.771 8.05398 510.057 7.67045 504.688H19.9432C20.2628 508.395 21.5092 511.463 23.6825 513.892C25.8878 516.289 28.6683 518.079 32.0241 519.261C35.4119 520.412 39.0554 520.987 42.9545 520.987C47.4929 520.987 51.5678 520.252 55.1793 518.782C58.7908 517.28 61.6513 515.202 63.7607 512.55C65.87 509.865 66.9247 506.733 66.9247 503.153C66.9247 499.893 66.0139 497.241 64.1921 495.195C62.3704 493.15 59.9734 491.488 57.0011 490.21C54.0288 488.931 50.8168 487.812 47.3651 486.854L35.2841 483.402C27.6136 481.197 21.5412 478.049 17.0668 473.958C12.5923 469.867 10.3551 464.513 10.3551 457.898C10.3551 452.401 11.8413 447.607 14.8136 443.516C17.8178 439.393 21.8448 436.197 26.8945 433.928C31.9762 431.626 37.6491 430.476 43.9134 430.476C50.2415 430.476 55.8665 431.61 60.7884 433.88C65.7102 436.117 69.6094 439.185 72.4858 443.084C75.3942 446.983 76.9283 451.41 77.0881 456.364H65.5824ZM95.3088 442.365V431.818H168.945V442.365H138.072V530H126.182V442.365H95.3088ZM268.748 480.909C268.748 491.264 266.879 500.213 263.139 507.756C259.4 515.298 254.27 521.115 247.75 525.206C241.231 529.297 233.784 531.342 225.41 531.342C217.037 531.342 209.59 529.297 203.07 525.206C196.55 521.115 191.421 515.298 187.681 507.756C183.942 500.213 182.072 491.264 182.072 480.909C182.072 470.554 183.942 461.605 187.681 454.062C191.421 446.52 196.55 440.703 203.07 436.612C209.59 432.521 217.037 430.476 225.41 430.476C233.784 430.476 241.231 432.521 247.75 436.612C254.27 440.703 259.4 446.52 263.139 454.062C266.879 461.605 268.748 470.554 268.748 480.909ZM257.243 480.909C257.243 472.408 255.82 465.233 252.976 459.384C250.163 453.535 246.344 449.109 241.518 446.104C236.724 443.1 231.355 441.598 225.41 441.598C219.466 441.598 214.08 443.1 209.254 446.104C204.46 449.109 200.641 453.535 197.797 459.384C194.984 465.233 193.578 472.408 193.578 480.909C193.578 489.411 194.984 496.586 197.797 502.434C200.641 508.283 204.46 512.71 209.254 515.714C214.08 518.718 219.466 520.22 225.41 520.22C231.355 520.22 236.724 518.718 241.518 515.714C246.344 512.71 250.163 508.283 252.976 502.434C255.82 496.586 257.243 489.411 257.243 480.909ZM291.439 530V431.818H324.614C332.285 431.818 338.581 433.129 343.503 435.749C348.424 438.338 352.068 441.902 354.433 446.44C356.798 450.978 357.981 456.14 357.981 461.925C357.981 467.71 356.798 472.839 354.433 477.314C352.068 481.788 348.44 485.304 343.551 487.86C338.661 490.385 332.412 491.648 324.806 491.648H297.959V480.909H324.422C329.664 480.909 333.883 480.142 337.079 478.608C340.307 477.074 342.64 474.901 344.078 472.088C345.548 469.244 346.283 465.856 346.283 461.925C346.283 457.994 345.548 454.558 344.078 451.618C342.608 448.677 340.259 446.408 337.031 444.81C333.803 443.18 329.536 442.365 324.231 442.365H303.329V530H291.439ZM337.654 485.895L361.816 530H348.009L324.231 485.895H337.654ZM384.519 530H372.054L408.106 431.818H420.378L456.429 530H443.965L414.625 447.351H413.858L384.519 530ZM389.121 491.648H439.363V502.195H389.121V491.648ZM536.925 462.5C535.87 459.272 534.48 456.38 532.754 453.823C531.06 451.234 529.03 449.029 526.665 447.207C524.332 445.385 521.68 443.995 518.707 443.036C515.735 442.077 512.475 441.598 508.927 441.598C503.111 441.598 497.821 443.1 493.059 446.104C488.297 449.109 484.51 453.535 481.697 459.384C478.885 465.233 477.479 472.408 477.479 480.909C477.479 489.411 478.901 496.586 481.745 502.434C484.59 508.283 488.441 512.71 493.299 515.714C498.157 518.718 503.622 520.22 509.695 520.22C515.32 520.22 520.273 519.022 524.556 516.625C528.871 514.196 532.226 510.776 534.623 506.365C537.052 501.923 538.267 496.697 538.267 490.689L541.91 491.456H512.379V480.909H549.773V491.456C549.773 499.542 548.047 506.573 544.595 512.55C541.175 518.526 536.445 523.161 530.405 526.452C524.396 529.712 517.493 531.342 509.695 531.342C501.001 531.342 493.363 529.297 486.779 525.206C480.227 521.115 475.114 515.298 471.438 507.756C467.795 500.213 465.973 491.264 465.973 480.909C465.973 473.143 467.012 466.159 469.089 459.959C471.198 453.727 474.171 448.422 478.006 444.043C481.841 439.664 486.38 436.309 491.621 433.975C496.862 431.642 502.631 430.476 508.927 430.476C514.105 430.476 518.931 431.259 523.405 432.825C527.912 434.359 531.923 436.548 535.438 439.393C538.986 442.205 541.942 445.577 544.307 449.508C546.672 453.407 548.302 457.738 549.197 462.5H536.925ZM572.835 530V431.818H632.09V442.365H584.725V475.54H629.021V486.087H584.725V519.453H632.857V530H572.835ZM696.888 431.818H711.078L744.444 513.317H745.595L778.961 431.818H793.152V530H782.03V455.405H781.071L750.389 530H739.65L708.969 455.405H708.01V530H696.888V431.818ZM823.717 530H811.253L847.304 431.818H859.577L895.628 530H883.163L853.824 447.351H853.057L823.717 530ZM828.319 491.648H878.561V502.195H828.319V491.648ZM991.476 431.818V530H979.97L926.469 452.912H925.51V530H913.621V431.818H925.126L978.82 509.098H979.778V431.818H991.476ZM1021.99 530H1009.53L1045.58 431.818H1057.85L1093.9 530H1081.44L1052.1 447.351H1051.33L1021.99 530ZM1026.6 491.648H1076.84V502.195H1026.6V491.648ZM1174.4 462.5C1173.34 459.272 1171.95 456.38 1170.23 453.823C1168.53 451.234 1166.5 449.029 1164.14 447.207C1161.81 445.385 1159.15 443.995 1156.18 443.036C1153.21 442.077 1149.95 441.598 1146.4 441.598C1140.58 441.598 1135.3 443.1 1130.53 446.104C1125.77 449.109 1121.98 453.535 1119.17 459.384C1116.36 465.233 1114.95 472.408 1114.95 480.909C1114.95 489.411 1116.38 496.586 1119.22 502.434C1122.06 508.283 1125.92 512.71 1130.77 515.714C1135.63 518.718 1141.1 520.22 1147.17 520.22C1152.79 520.22 1157.75 519.022 1162.03 516.625C1166.34 514.196 1169.7 510.776 1172.1 506.365C1174.53 501.923 1175.74 496.697 1175.74 490.689L1179.38 491.456H1149.85V480.909H1187.25V491.456C1187.25 499.542 1185.52 506.573 1182.07 512.55C1178.65 518.526 1173.92 523.161 1167.88 526.452C1161.87 529.712 1154.97 531.342 1147.17 531.342C1138.48 531.342 1130.84 529.297 1124.25 525.206C1117.7 521.115 1112.59 515.298 1108.91 507.756C1105.27 500.213 1103.45 491.264 1103.45 480.909C1103.45 473.143 1104.49 466.159 1106.56 459.959C1108.67 453.727 1111.64 448.422 1115.48 444.043C1119.32 439.664 1123.85 436.309 1129.1 433.975C1134.34 431.642 1140.11 430.476 1146.4 430.476C1151.58 430.476 1156.41 431.259 1160.88 432.825C1165.39 434.359 1169.4 436.548 1172.91 439.393C1176.46 442.205 1179.42 445.577 1181.78 449.508C1184.15 453.407 1185.78 457.738 1186.67 462.5H1174.4ZM1210.31 530V431.818H1269.56V442.365H1222.2V475.54H1266.5V486.087H1222.2V519.453H1270.33V530H1210.31ZM1293.69 431.818H1307.88L1341.25 513.317H1342.4L1375.77 431.818H1389.96V530H1378.84V455.405H1377.88L1347.19 530H1336.46L1305.77 455.405H1304.82V530H1293.69V431.818ZM1416.5 530V431.818H1475.75V442.365H1428.38V475.54H1472.68V486.087H1428.38V519.453H1476.52V530H1416.5ZM1577.73 431.818V530H1566.23L1512.73 452.912H1511.77V530H1499.88V431.818H1511.38L1565.08 509.098H1566.04V431.818H1577.73ZM1598.86 442.365V431.818H1672.49V442.365H1641.62V530H1629.73V442.365H1598.86ZM1787.9 456.364C1787.33 451.506 1784.99 447.734 1780.9 445.05C1776.81 442.365 1771.79 441.023 1765.85 441.023C1761.5 441.023 1757.7 441.726 1754.44 443.132C1751.21 444.538 1748.69 446.472 1746.87 448.933C1745.08 451.394 1744.18 454.19 1744.18 457.322C1744.18 459.943 1744.8 462.196 1746.05 464.082C1747.33 465.936 1748.96 467.486 1750.94 468.732C1752.92 469.947 1755 470.953 1757.17 471.752C1759.35 472.52 1761.34 473.143 1763.17 473.622L1773.14 476.307C1775.69 476.978 1778.54 477.905 1781.67 479.087C1784.83 480.27 1787.86 481.884 1790.73 483.929C1793.64 485.943 1796.04 488.532 1797.92 491.696C1799.81 494.86 1800.75 498.743 1800.75 503.345C1800.75 508.651 1799.36 513.445 1796.58 517.727C1793.83 522.01 1789.8 525.414 1784.5 527.939C1779.23 530.463 1772.82 531.726 1765.28 531.726C1758.24 531.726 1752.16 530.591 1747.01 528.322C1741.9 526.053 1737.87 522.889 1734.93 518.83C1732.02 514.771 1730.37 510.057 1729.99 504.688H1742.26C1742.58 508.395 1743.83 511.463 1746 513.892C1748.21 516.289 1750.99 518.079 1754.34 519.261C1757.73 520.412 1761.38 520.987 1765.28 520.987C1769.81 520.987 1773.89 520.252 1777.5 518.782C1781.11 517.28 1783.97 515.202 1786.08 512.55C1788.19 509.865 1789.25 506.733 1789.25 503.153C1789.25 499.893 1788.33 497.241 1786.51 495.195C1784.69 493.15 1782.29 491.488 1779.32 490.21C1776.35 488.931 1773.14 487.812 1769.69 486.854L1757.6 483.402C1749.93 481.197 1743.86 478.049 1739.39 473.958C1734.91 469.867 1732.68 464.513 1732.68 457.898C1732.68 452.401 1734.16 447.607 1737.13 443.516C1740.14 439.393 1744.17 436.197 1749.22 433.928C1754.3 431.626 1759.97 430.476 1766.23 430.476C1772.56 430.476 1778.19 431.61 1783.11 433.88C1788.03 436.117 1791.93 439.185 1794.81 443.084C1797.71 446.983 1799.25 451.41 1799.41 456.364H1787.9ZM1814.56 431.818H1828.18L1855.41 477.649H1856.56L1883.79 431.818H1897.4L1861.93 489.538V530H1850.04V489.538L1814.56 431.818ZM1969.17 456.364C1968.6 451.506 1966.26 447.734 1962.17 445.05C1958.08 442.365 1953.06 441.023 1947.12 441.023C1942.77 441.023 1938.97 441.726 1935.71 443.132C1932.48 444.538 1929.96 446.472 1928.14 448.933C1926.35 451.394 1925.45 454.19 1925.45 457.322C1925.45 459.943 1926.07 462.196 1927.32 464.082C1928.6 465.936 1930.23 467.486 1932.21 468.732C1934.19 469.947 1936.27 470.953 1938.44 471.752C1940.62 472.52 1942.61 473.143 1944.43 473.622L1954.41 476.307C1956.96 476.978 1959.81 477.905 1962.94 479.087C1966.1 480.27 1969.12 481.884 1972 483.929C1974.91 485.943 1977.31 488.532 1979.19 491.696C1981.08 494.86 1982.02 498.743 1982.02 503.345C1982.02 508.651 1980.63 513.445 1977.85 517.727C1975.1 522.01 1971.07 525.414 1965.77 527.939C1960.49 530.463 1954.09 531.726 1946.54 531.726C1939.51 531.726 1933.42 530.591 1928.28 528.322C1923.17 526.053 1919.14 522.889 1916.2 518.83C1913.29 514.771 1911.64 510.057 1911.26 504.688H1923.53C1923.85 508.395 1925.1 511.463 1927.27 513.892C1929.48 516.289 1932.26 518.079 1935.61 519.261C1939 520.412 1942.64 520.987 1946.54 520.987C1951.08 520.987 1955.16 520.252 1958.77 518.782C1962.38 517.28 1965.24 515.202 1967.35 512.55C1969.46 509.865 1970.51 506.733 1970.51 503.153C1970.51 499.893 1969.6 497.241 1967.78 495.195C1965.96 493.15 1963.56 491.488 1960.59 490.21C1957.62 488.931 1954.41 487.812 1950.95 486.854L1938.87 483.402C1931.2 481.197 1925.13 478.049 1920.66 473.958C1916.18 469.867 1913.94 464.513 1913.94 457.898C1913.94 452.401 1915.43 447.607 1918.4 443.516C1921.41 439.393 1925.43 436.197 1930.48 433.928C1935.57 431.626 1941.24 430.476 1947.5 430.476C1953.83 430.476 1959.46 431.61 1964.38 433.88C1969.3 436.117 1973.2 439.185 1976.08 443.084C1978.98 446.983 1980.52 451.41 1980.68 456.364H1969.17ZM1998.9 442.365V431.818H2072.53V442.365H2041.66V530H2029.77V442.365H1998.9ZM2093.58 530V431.818H2152.84V442.365H2105.47V475.54H2149.77V486.087H2105.47V519.453H2153.61V530H2093.58ZM2176.97 431.818H2191.16L2224.52 513.317H2225.67L2259.04 431.818H2273.23V530H2262.11V455.405H2261.15L2230.47 530H2219.73L2189.05 455.405H2188.09V530H2176.97V431.818ZM2353.46 456.364C2352.89 451.506 2350.55 447.734 2346.46 445.05C2342.37 442.365 2337.36 441.023 2331.41 441.023C2327.06 441.023 2323.26 441.726 2320 443.132C2316.77 444.538 2314.25 446.472 2312.43 448.933C2310.64 451.394 2309.74 454.19 2309.74 457.322C2309.74 459.943 2310.36 462.196 2311.61 464.082C2312.89 465.936 2314.52 467.486 2316.5 468.732C2318.48 469.947 2320.56 470.953 2322.73 471.752C2324.91 472.52 2326.9 473.143 2328.73 473.622L2338.7 476.307C2341.25 476.978 2344.1 477.905 2347.23 479.087C2350.4 480.27 2353.42 481.884 2356.29 483.929C2359.2 485.943 2361.6 488.532 2363.48 491.696C2365.37 494.86 2366.31 498.743 2366.31 503.345C2366.31 508.651 2364.92 513.445 2362.14 517.727C2359.39 522.01 2355.36 525.414 2350.06 527.939C2344.79 530.463 2338.38 531.726 2330.84 531.726C2323.8 531.726 2317.72 530.591 2312.57 528.322C2307.46 526.053 2303.43 522.889 2300.49 518.83C2297.58 514.771 2295.93 510.057 2295.55 504.688H2307.82C2308.14 508.395 2309.39 511.463 2311.56 513.892C2313.77 516.289 2316.55 518.079 2319.91 519.261C2323.29 520.412 2326.94 520.987 2330.84 520.987C2335.37 520.987 2339.45 520.252 2343.06 518.782C2346.67 517.28 2349.53 515.202 2351.64 512.55C2353.75 509.865 2354.81 506.733 2354.81 503.153C2354.81 499.893 2353.89 497.241 2352.07 495.195C2350.25 493.15 2347.85 491.488 2344.88 490.21C2341.91 488.931 2338.7 487.812 2335.25 486.854L2323.16 483.402C2315.49 481.197 2309.42 478.049 2304.95 473.958C2300.47 469.867 2298.24 464.513 2298.24 457.898C2298.24 452.401 2299.72 447.607 2302.69 443.516C2305.7 439.393 2309.73 436.197 2314.78 433.928C2319.86 431.626 2325.53 430.476 2331.79 430.476C2338.12 430.476 2343.75 431.61 2348.67 433.88C2353.59 436.117 2357.49 439.185 2360.37 443.084C2363.28 446.983 2364.81 451.41 2364.97 456.364H2353.46Z" fill="black"/>
<path d="M1 240.11V1.77441H239.335L120.168 120.942L1 240.11Z" fill="#300088"/>
<path d="M1 399V299.693L73.8247 233.489L239.335 399H1Z" fill="#300088"/>
<path d="M471.05 1.77441H292.298L93.6855 200.387L292.298 399H464.429L279.057 200.387L471.05 1.77441Z" fill="#FFF700"/>
</svg>
